<svg width="108" height="32" viewBox="0 0 108 32" fill="none" xmlns="http://www.w3.org/2000/svg">
<g filter="url(#filter0_i_340_3)">
<path d="M20.1888 7.81294C20.1888 10.4892 18.0144 12.6474 15.336 12.6474C12.6576 12.6474 10.4976 10.4748 10.4976 7.81294C10.4976 7.81294 10.3248 6.92087 11.2464 4.90648C12.8448 1.48201 15.2784 0 15.2784 0C17.0784 1.2518 18.5328 2.93525 19.4832 4.90648C20.3184 6.6187 20.2032 7.81294 20.1888 7.81294ZM20.1888 24.187C20.1888 21.5108 18.0144 19.3526 15.336 19.3526C12.6576 19.3526 10.4976 21.5252 10.4976 24.187C10.4976 24.187 10.3248 25.0791 11.2464 27.0935C12.8448 30.518 15.2784 32 15.2784 32C17.0784 30.7482 18.5328 29.0648 19.4832 27.0935C20.3184 25.3813 20.2032 24.187 20.1888 24.187ZM22.6512 11.1799C19.9728 11.1799 17.8128 13.3526 17.8128 16.0288C17.8128 18.705 19.9872 20.8633 22.6512 20.8633C22.6512 20.8633 23.5584 21.036 25.56 20.1151C28.9872 18.518 30.4704 16.0863 30.4704 16.0863C29.2176 14.2878 27.5328 12.8346 25.56 11.8849C23.8464 11.0503 22.6512 11.1654 22.6512 11.1799ZM7.8192 11.1223C10.4976 11.1654 12.6288 13.3669 12.5856 16.0431C12.5424 18.6474 10.44 20.7626 7.8192 20.8058C7.8192 20.8058 6.912 20.9784 4.9104 20.0576C1.4832 18.4604 0 16.0288 0 16.0288C1.2528 14.2302 2.9376 12.7913 4.9104 11.8273C6.624 11.0072 7.8192 11.1367 7.8192 11.1223ZM50.2416 10.9064C50.2416 12.1439 49.608 13.6979 47.664 14.446C50.1552 15.0791 51.2352 17.2087 51.2352 18.7482C51.2352 21.8705 48.96 24.5323 45.2016 24.5323H37.08V5.64029H44.64C48.0384 5.64029 50.2272 7.68345 50.2416 10.9064ZM41.0976 13.1079H44.2512C45.288 13.1079 46.008 12.2878 46.008 11.1654C46.008 9.98561 45.4032 9.19424 44.2224 9.19424H41.0976V13.1079ZM44.8848 16.4172H41.0976V20.9928H44.9712C46.3104 20.9928 47.0016 19.7842 47.0016 18.6619C47.0016 17.5971 46.3104 16.4172 44.8848 16.4172ZM53.0784 4.76259V24.518H56.88V4.77698L53.0784 4.76259ZM65.2752 21.0072C66.8592 21.0072 68.184 19.8561 68.184 18.0719C68.184 16.3453 66.8736 15.1654 65.2752 15.1654C63.7056 15.1367 62.424 16.3884 62.3952 17.9569C62.3952 18 62.3952 18.0431 62.3952 18.0719C62.3808 19.8706 63.7056 21.0216 65.2752 21.0072ZM65.2752 24.7338C61.6608 24.7338 58.6368 22.1007 58.6368 18.0719C58.6368 14.0431 61.6608 11.4389 65.2752 11.4389C68.8896 11.4389 71.9424 14.0431 71.9424 18.0719C71.9424 22.1007 68.8896 24.7482 65.2752 24.7338ZM79.5456 21.0072C81.1296 21.0072 82.4544 19.8561 82.4544 18.0719C82.4544 16.3453 81.144 15.1654 79.5456 15.1654C77.976 15.1367 76.6944 16.3884 76.6656 17.9569C76.6656 18 76.6656 18.0431 76.6656 18.0719C76.6656 19.8706 77.976 21.0216 79.5456 21.0072ZM79.5456 24.7338C75.9312 24.7338 72.9072 22.1007 72.9072 18.0719C72.9072 14.0431 75.9312 11.4389 79.5456 11.4389C83.16 11.4389 86.2128 14.0431 86.2128 18.0719C86.2128 22.1007 83.16 24.7482 79.5456 24.7338ZM102.111 15.1511C103.233 15.1511 104.227 16.0288 104.227 17.6979V24.518H108V17.2662C108 13.3957 106.113 11.4532 103.061 11.4532C102.153 11.4532 100.455 11.7267 99.2163 13.7267C98.496 12.2446 97.128 11.482 95.0976 11.482C93.672 11.4677 92.3616 12.3021 91.7568 13.5971V11.741H87.9408V24.518H91.7568V17.7554C91.7568 15.813 92.8224 15.1511 93.9744 15.1511C95.0688 15.1511 96.0624 16 96.0912 17.6116V24.518H99.9069V17.7554C99.9069 15.8993 100.901 15.1511 102.111 15.1511Z" fill="#FFC178" fill-opacity="0.9"/>
</g>
<defs>
<filter id="filter0_i_340_3" x="0" y="0" width="108" height="36" filterUnits="userSpaceOnUse" color-interpolation-filters="sRGB">
<feFlood flood-opacity="0" result="BackgroundImageFix"/>
<feBlend mode="normal" in="SourceGraphic" in2="BackgroundImageFix" result="shape"/>
<feColorMatrix in="SourceAlpha" type="matrix" values="0 0 0 0 0 0 0 0 0 0 0 0 0 0 0 0 0 0 127 0" result="hardAlpha"/>
<feOffset dy="4"/>
<feGaussianBlur stdDeviation="2"/>
<feComposite in2="hardAlpha" operator="arithmetic" k2="-1" k3="1"/>
<feColorMatrix type="matrix" values="0 0 0 0 0 0 0 0 0 0 0 0 0 0 0 0 0 0 0.25 0"/>
<feBlend mode="normal" in2="shape" result="effect1_innerShadow_340_3"/>
</filter>
</defs>
</svg>
