<svg width="107" height="31" viewBox="0 0 107 31" fill="none" xmlns="http://www.w3.org/2000/svg">
<g filter="url(#filter0_i_344_14)">
<path d="M0 6.84365L13.684 0.257966C14.4732 -0.120164 15.2096 -0.066002 15.9997 0.312128L28.8946 6.52068C29.2104 6.68116 29.5791 6.79149 29.5791 7.16862C29.5791 7.65507 29.1586 7.70823 28.8427 7.87071L16.474 13.8085C15.3162 14.3481 14.3226 14.3481 13.1589 13.8085L0 7.54173V6.83963V6.84365ZM0 23.6318L2.42133 22.3901C3.42174 21.8505 4.36739 21.9588 5.36878 22.4443L13.3163 26.2757C14.3167 26.7622 15.2624 26.7622 16.2638 26.2757L24.3169 22.3891C25.3173 21.9026 26.263 21.9026 27.2644 22.3891C27.8433 22.7131 28.475 22.9829 29.054 23.2517C29.318 23.4122 29.6857 23.5225 29.6329 23.8996C29.6329 24.2236 29.317 24.3861 29.054 24.4934L23.0535 27.4081L16.2638 30.6478C15.369 31.0791 14.4742 31.1342 13.5794 30.7019L0.841988 24.6017C0.57795 24.4934 0.367698 24.2777 0.105616 24.1153C2.69584e-07 24.0069 0 23.8445 0 23.6288V23.6318ZM0 15.2648L1.8424 14.3471C3.26332 13.4845 4.58057 13.645 6.05332 14.4012L13.5276 18.018C14.4761 18.4493 15.3171 18.4493 16.2119 18.018L24.1595 14.1866C25.2645 13.647 26.3109 13.5928 27.4257 14.1866L29.2681 15.1043C29.7943 15.4283 29.7424 15.7523 29.2681 16.0772C29.1117 16.1856 28.9523 16.2377 28.7939 16.2929L16.1102 22.339C15.2692 22.7702 14.4263 22.7702 13.5813 22.339L0.89773 16.2929C0.581862 16.1324 0.318802 15.9148 0.00293401 15.7533V15.2668L0 15.2648ZM41.8862 6.13754V12.5898C42.0847 12.6199 42.1405 12.5026 42.2265 12.4153C44.3799 10.0613 48.4031 10.4093 50.2748 13.1124C52.1162 15.7282 52.0595 20.2638 50.133 22.7913C48.2065 25.3189 44.4943 25.5796 42.2559 23.3129L41.8872 22.9638V24.1273C41.8872 24.4282 41.7738 24.5626 41.4628 24.5626H38.7999C38.487 24.5626 38.3471 24.4463 38.3471 24.1273V6.80553L38.3765 6.13754H41.897H41.8862ZM41.8862 17.8225V19.7121C41.8654 19.8923 41.8941 20.0748 41.9691 20.2391C42.0441 20.4034 42.1624 20.5429 42.3106 20.6419C42.5375 20.8164 42.7351 20.9909 42.9903 21.1364C45.1153 22.3279 47.3812 21.34 47.8926 18.9859C48.0344 18.3179 48.0628 17.6198 47.9219 16.9228C47.6677 15.6149 47.0712 14.5687 45.7686 14.1906C44.4093 13.7834 43.1614 14.1605 42.1424 15.1786C41.9439 15.3531 41.8882 15.5858 41.8882 15.8466V17.8225H41.8862ZM106.972 14.5075C106.32 14.5657 105.696 14.4203 105.045 14.6239L104.309 14.8847C103.346 15.2628 102.863 15.8726 102.92 17.0642L102.949 23.8344C102.949 24.5024 102.949 24.5024 102.326 24.5024H100.03C99.6617 24.5024 99.5776 24.357 99.5776 23.9809L99.6069 12.6169C99.6069 11.4253 99.5776 11.4253 100.712 11.4253H102.468C102.865 11.3952 103.006 11.5708 102.977 11.977C102.948 12.326 102.977 12.645 102.977 13.0803C104.167 11.9469 105.357 11.0462 107 11.1626L106.971 14.5045L106.972 14.5075ZM92.5483 19.1574H88.4684C87.9306 19.1574 87.8445 19.2447 88.044 19.7673C88.6953 21.4523 90.0272 22.1795 91.8413 22.004C92.8329 21.9167 93.7971 21.5967 94.5892 20.9287C94.7594 20.7833 94.8826 20.7833 95.0136 20.9869L96.1754 22.7301C96.3456 22.9909 96.2048 23.1373 96.0336 23.2818C95.2689 23.9217 94.3907 24.2988 93.4265 24.5315C91.4433 25.026 89.4884 24.9959 87.6744 23.9799C85.1807 22.6138 84.2458 20.3189 84.3494 17.5276C84.4629 14.4484 86.7013 11.8305 89.6204 11.2819C93.3893 10.5848 96.6194 12.9669 97.1572 16.8907C97.2423 17.4724 97.2423 18.0541 97.2707 18.6339C97.2707 19.012 97.1289 19.1554 96.7622 19.1554C95.3442 19.1253 93.9555 19.1554 92.5405 19.1554L92.5483 19.1574ZM90.9054 16.7452H93.3991C93.9663 16.7452 93.9937 16.7151 93.8519 16.1354C93.4832 14.7112 92.3214 13.9268 90.6785 13.985C90.02 14.0119 89.3891 14.264 88.8863 14.7011C88.3836 15.1382 88.0379 15.7353 87.9042 16.3972C87.8475 16.7182 87.9892 16.7753 88.2445 16.7753L90.9083 16.7452H90.9054ZM61.9756 22.9638C61.296 23.6037 60.6437 24.0972 59.879 24.3881C58.5955 24.9099 57.1777 24.9714 55.8558 24.5626C54.4965 24.1554 53.589 22.8776 53.5039 21.339L53.4472 15.0321V12.0693C53.4472 11.634 53.5606 11.4294 54.0144 11.4594H56.2245C56.8758 11.4594 56.8758 11.4594 56.8758 12.0994V19.1605C56.8758 21.02 57.5554 21.688 59.3695 21.6278C60.3611 21.5977 61.0984 21.1063 61.7751 20.4363C61.9737 20.2327 61.9453 19.9719 61.9453 19.7392V12.1535C61.9453 11.4564 61.9453 11.4564 62.625 11.4564H64.8644C65.2331 11.4564 65.3465 11.6019 65.3465 11.9509V23.9829C65.3465 24.361 65.2047 24.5044 64.838 24.5044C64.0259 24.4755 63.2131 24.4755 62.401 24.5044C62.0323 24.5044 61.8925 24.359 61.9189 24.0099C62.004 23.709 61.9756 23.4001 61.9756 22.9638ZM81.2436 19.5536V23.9417C81.2436 24.377 81.1301 24.5235 80.7057 24.5235C79.922 24.4944 79.1375 24.4944 78.3538 24.5235C77.9294 24.5235 77.7866 24.378 77.7866 23.9417V15.2237C77.7866 14.5266 77.7866 14.5266 77.107 14.5266H76.1437C75.8895 14.5266 75.7467 14.4393 75.7467 14.1485V11.8817C75.7467 11.5607 75.8885 11.4745 76.1711 11.4745H77.3612C77.6742 11.4745 77.7856 11.3581 77.7856 11.0392C77.7811 10.6004 77.8191 10.1623 77.8991 9.73128C78.3235 7.40633 80.3361 5.98207 82.7163 6.32109C83.5671 6.43743 84.3592 6.62198 85.0682 7.19369C85.3616 7.42639 85.4652 7.62899 85.21 7.97804C84.9166 8.35617 84.6721 8.79046 84.4453 9.19868C84.2751 9.49958 84.105 9.6059 83.794 9.37321C83.6139 9.25363 83.4113 9.17434 83.1994 9.14051C81.9809 8.83961 80.8759 10.0703 81.2436 11.2909C81.3003 11.5236 81.4978 11.4945 81.6406 11.4945H83.3402C83.6336 11.4945 83.793 11.5818 83.793 11.9298V14.1384C83.793 14.4393 83.6796 14.5737 83.3686 14.5457H81.8381C81.1868 14.5457 81.1868 14.5457 81.1868 15.1856L81.2436 19.5426V19.5536ZM69.3423 19.4664V15.0582C69.3423 14.6801 69.2288 14.5065 68.8602 14.5366C68.4631 14.5667 68.0681 14.5366 67.67 14.5366C67.3767 14.5366 67.2456 14.4494 67.2456 14.1294V11.8626C67.2456 11.5617 67.3874 11.4554 67.6427 11.4845H68.8895C69.2582 11.5146 69.3716 11.3682 69.3716 10.99C69.3423 10.0893 69.4567 9.18865 69.9095 8.4023C70.7603 6.89179 72.4325 6.07736 74.2162 6.31206C75.0377 6.42841 75.8318 6.57284 76.5114 7.0964C76.9935 7.47453 77.0199 7.5317 76.7099 8.02618L75.9736 9.21774C75.8318 9.47852 75.6606 9.56678 75.379 9.36318C75.0973 9.15957 74.7551 9.04222 74.3874 9.04222C73.2823 9.04222 72.4902 10.1455 72.8569 11.2508C72.942 11.4835 73.1112 11.4544 73.254 11.4544H74.8969C75.2098 11.4544 75.3496 11.5708 75.3213 11.8897V14.0692C75.3213 14.3902 75.2078 14.5336 74.8969 14.5045H73.3948C72.942 14.4744 72.8002 14.65 72.8276 15.0863V23.6599C72.8276 24.4723 72.8276 24.4723 72.0061 24.4723C71.3265 24.4723 70.6175 24.4422 69.9378 24.4723C69.5408 24.4723 69.3706 24.356 69.3706 23.8906L69.3413 19.4734L69.3423 19.4664Z" fill="#FFC178" fill-opacity="0.9"/>
</g>
<defs>
<filter id="filter0_i_344_14" x="0" y="0" width="107" height="35" filterUnits="userSpaceOnUse" color-interpolation-filters="sRGB">
<feFlood flood-opacity="0" result="BackgroundImageFix"/>
<feBlend mode="normal" in="SourceGraphic" in2="BackgroundImageFix" result="shape"/>
<feColorMatrix in="SourceAlpha" type="matrix" values="0 0 0 0 0 0 0 0 0 0 0 0 0 0 0 0 0 0 127 0" result="hardAlpha"/>
<feOffset dy="4"/>
<feGaussianBlur stdDeviation="2"/>
<feComposite in2="hardAlpha" operator="arithmetic" k2="-1" k3="1"/>
<feColorMatrix type="matrix" values="0 0 0 0 0 0 0 0 0 0 0 0 0 0 0 0 0 0 0.25 0"/>
<feBlend mode="normal" in2="shape" result="effect1_innerShadow_344_14"/>
</filter>
</defs>
</svg>
