<svg width="115" height="27" viewBox="0 0 115 27" fill="none" xmlns="http://www.w3.org/2000/svg">
<path d="M3.74058 17.134C1.67611 17.134 0 15.4869 0 13.4581C0 11.4294 1.67611 9.80235 3.72014 9.80235C5.76417 9.80235 7.44027 11.4495 7.44027 13.4581C7.44027 15.4668 5.80505 17.134 3.74058 17.134ZM23.0362 0C20.2768 0 20.1541 2.28989 15.9434 2.28989C11.6919 2.28989 11.3444 0 8.83022 0C6.76574 0 5.11008 1.64712 5.11008 3.65579C5.11008 5.66447 6.78618 7.31159 8.83022 7.31159C11.6101 7.31159 11.7327 5.0217 15.9434 5.0217C20.195 5.0217 20.5425 7.31159 23.0567 7.31159C25.1211 7.31159 26.7768 5.66447 26.7768 3.65579C26.7768 1.64712 25.1007 0 23.0362 0ZM23.0362 19.5846C20.2563 19.5846 20.1337 21.8745 15.923 21.8745C11.6714 21.8745 11.3239 19.5846 8.80977 19.5846C6.7453 19.5846 5.08964 21.2317 5.08964 23.2404C5.08964 25.2491 6.76574 26.8962 8.80977 26.8962C11.5897 26.8962 11.7123 24.6063 15.923 24.6063C20.1746 24.6063 20.5221 26.8962 23.0362 26.8962C25.1007 26.8962 26.7564 25.2491 26.7564 23.2404C26.7564 21.2317 25.1007 19.5846 23.0362 19.5846ZM28.5551 9.80235C25.7548 9.80235 25.857 12.2128 22.3413 12.2128C19.0913 12.2128 19.0504 9.82244 15.923 9.82244C13.9812 9.82244 12.3868 11.57 12.3868 13.4782C12.3868 15.3865 14.0016 17.134 16.107 17.134C18.9073 17.134 18.8051 14.7236 22.3208 14.7236C25.5708 14.7236 25.6117 17.1139 28.7391 17.1139C30.6809 17.1139 32.2753 15.3664 32.2753 13.4581C32.2957 11.5499 30.6809 9.80235 28.5551 9.80235Z" fill="white"/>
<path d="M50.5431 18.9084C49.4614 20.6861 47.5202 22.0084 45.3124 22.0084C41.4301 22.0084 39 19.1141 39 15.6909C39 12.2677 41.845 9.49093 45.3272 9.49093C47.535 9.49093 49.4762 10.6957 50.5579 12.4734C50.632 12.6203 50.5875 12.7966 50.4393 12.8848C50.2912 12.9729 47.9648 14.2952 47.9648 14.2952C47.8166 14.3833 47.6388 14.3246 47.5499 14.1923C47.0609 13.4871 46.2607 13.0317 45.3272 13.0317C43.8454 13.0317 42.6452 14.2217 42.6452 15.6909C42.6452 17.1601 43.8454 18.3501 45.3272 18.3501C46.2459 18.3501 47.0609 17.8947 47.5499 17.1895C47.6388 17.0426 47.8314 16.9985 47.9796 17.0719C47.9796 17.0719 50.306 18.4089 50.4541 18.4824C50.5875 18.5705 50.632 18.7615 50.5431 18.9084ZM82.8458 4.58385C81.7938 4.58385 80.9343 5.43598 80.9343 6.4791C80.9343 7.52222 81.7938 8.37435 82.8458 8.37435C83.8979 8.37435 84.7573 7.52222 84.7573 6.4791C84.7573 5.43598 83.8979 4.58385 82.8458 4.58385ZM84.6091 9.87292C84.6091 9.69662 84.461 9.56439 84.298 9.56439C84.298 9.56439 81.5567 9.56439 81.3937 9.56439C81.2307 9.56439 81.0825 9.71131 81.0825 9.87292V21.553C81.0825 21.7293 81.2307 21.8615 81.3937 21.8615H84.298C84.4758 21.8615 84.6091 21.7146 84.6091 21.553V9.87292ZM112.837 4.58385C111.785 4.58385 110.926 5.43598 110.926 6.4791C110.926 7.52222 111.785 8.37435 112.837 8.37435C113.889 8.37435 114.749 7.52222 114.749 6.4791C114.749 5.43598 113.889 4.58385 112.837 4.58385ZM114.6 9.87292C114.6 9.69662 114.452 9.56439 114.289 9.56439C114.289 9.56439 111.548 9.56439 111.385 9.56439C111.222 9.56439 111.074 9.71131 111.074 9.87292V21.553C111.074 21.7293 111.222 21.8615 111.385 21.8615H114.289C114.467 21.8615 114.6 21.7146 114.6 21.553V9.87292ZM55.9515 4.26063C55.9515 4.08433 55.8034 3.9521 55.6404 3.9521C55.6404 3.9521 52.8991 3.9521 52.7361 3.9521C52.5731 3.9521 52.4249 4.09902 52.4249 4.26063V21.553C52.4249 21.7293 52.5731 21.8615 52.7361 21.8615H55.6404C55.8182 21.8615 55.9515 21.7146 55.9515 21.553V4.26063ZM95.4261 9.56439C95.4261 9.56439 93.0849 9.56439 92.7737 9.56439C92.3885 9.56439 92.3885 9.32932 92.3885 9.12364C92.3885 7.28715 92.4033 7.49284 95.3372 7.49284C95.5002 7.49284 95.6336 7.36061 95.6336 7.199C95.6336 7.199 95.6336 4.53978 95.6336 4.37817C95.6336 4.21656 95.6336 3.96679 95.2631 3.96679C93.1738 3.96679 88.8915 3.57011 88.8618 9.22648C88.8618 9.24117 88.8618 9.56439 88.6099 9.56439C88.032 9.56439 86.7429 9.56439 86.7429 9.56439C86.5651 9.56439 86.4317 9.71131 86.4317 9.87292V12.7672C86.4317 12.9435 86.5799 13.0757 86.7429 13.0757H88.5655C88.8174 13.0757 88.8618 13.0757 88.8618 13.3549V21.553C88.8618 21.7293 89.01 21.8615 89.173 21.8615H92.0773C92.2551 21.8615 92.3885 21.7146 92.3885 21.553V13.3402C92.3885 13.0757 92.4774 13.0757 92.7145 13.0757H95.4261C95.6039 13.0757 95.7373 12.9288 95.7373 12.7672C95.7373 12.7672 95.7373 10.0492 95.7373 9.87292C95.7373 9.69662 95.6039 9.56439 95.4261 9.56439ZM69.9099 9.87292V21.553C69.9099 21.7293 69.7617 21.8615 69.5987 21.8615H66.7093C66.3833 21.8615 66.3981 21.4501 66.3981 21.4501C66.3981 21.2738 66.2499 21.171 66.1017 21.2591C66.1017 21.2591 65.0941 21.9937 63.6568 21.9937C59.9227 21.9937 57.4037 19.3198 57.4037 15.6321C57.4037 12.2089 60.2042 9.47624 63.5679 9.47624C64.9904 9.47624 66.1165 10.1374 66.1165 10.1374C66.2795 10.2255 66.4425 10.1227 66.4425 9.96107C66.4425 9.96107 66.4277 9.5497 66.7537 9.5497H69.5987C69.7765 9.56439 69.9099 9.69662 69.9099 9.87292ZM66.3981 15.6909C66.3981 14.1923 65.183 12.9876 63.6864 12.9876C62.1898 12.9876 60.9748 14.1923 60.9748 15.6909C60.9748 17.1895 62.1898 18.3942 63.6864 18.3942C65.183 18.3942 66.3981 17.1895 66.3981 15.6909ZM75.3036 21.8468H72.3696C72.1918 21.8468 72.0585 21.6999 72.0585 21.5383V9.85823C72.0585 9.68193 72.1918 9.5497 72.3696 9.5497H75.3332C75.6592 9.5497 75.6444 9.96107 75.6444 9.96107C75.6444 10.108 75.7629 10.1961 75.8963 10.1668C75.9704 10.1521 76.1482 10.0492 76.2815 10.0051C76.7409 9.81415 77.5559 9.57908 79.0525 9.57908C79.4229 9.57908 79.4229 9.82885 79.4229 9.99046C79.4229 10.1521 79.4229 12.7966 79.4229 12.7966C79.4229 12.9582 79.2895 13.0904 79.1266 13.0904C76.5038 13.0904 75.7036 13.3843 75.5999 14.7212L75.6147 21.5676C75.6147 21.7146 75.4666 21.8468 75.3036 21.8468ZM108.881 9.87292V21.553C108.881 21.7293 108.732 21.8615 108.569 21.8615H105.68C105.354 21.8615 105.369 21.4501 105.369 21.4501C105.369 21.2738 105.221 21.171 105.072 21.2591C105.072 21.2591 104.065 21.9937 102.628 21.9937C98.8935 21.9937 96.3745 19.3198 96.3745 15.6321C96.3745 12.2089 99.175 9.47624 102.539 9.47624C103.961 9.47624 105.087 10.1374 105.087 10.1374C105.25 10.2255 105.413 10.1227 105.413 9.96107C105.413 9.96107 105.398 9.5497 105.724 9.5497H108.569C108.747 9.56439 108.881 9.69662 108.881 9.87292ZM105.369 15.6909C105.369 14.1923 104.154 12.9876 102.657 12.9876C101.161 12.9876 99.9455 14.1923 99.9455 15.6909C99.9455 17.1895 101.161 18.3942 102.657 18.3942C104.154 18.3942 105.369 17.1895 105.369 15.6909Z" fill="white"/>
</svg>
