<svg width="100" height="29" viewBox="0 0 100 29" fill="none" xmlns="http://www.w3.org/2000/svg">
<g opacity="0.9" clip-path="url(#clip0_344_2)" filter="url(#filter0_i_344_2)">
<path d="M33.0482 6.38367H38.3395L42.357 16.5063H42.455L46.2765 6.38367H51.2739L45.0027 21.3396H39.8093" fill="#FFC178" fill-opacity="0.9"/>
<path d="M13.7446 10.1226H8.84523V15.1384C8.84523 15.9591 8.94322 17.0535 9.82511 17.6006C10.707 17.9654 11.6869 18.0566 12.6667 17.8742C13.0587 17.8742 13.4506 17.6918 13.7446 17.5094V21.3396C13.1567 21.522 12.4708 21.6132 11.8828 21.7044C8.3553 22.0692 3.55391 21.4308 3.55391 17.327V10.2138H0.0263672V6.38365H3.45593V2.00629H8.84523V6.38365H13.7446V10.1226ZM27.5608 6.38365H32.4602V21.3396H27.5608V6.38365ZM27.3649 2.46226C27.2669 1.18553 28.4427 0 29.9125 0C31.3823 0 32.5582 1.00314 32.5582 2.37107V2.46226C32.5582 3.83019 31.2843 4.92453 29.9125 4.83333C28.5407 4.83333 27.3649 3.83019 27.3649 2.46226Z" fill="#FFC178" fill-opacity="0.9"/>
<path d="M88.3131 13.8617C88.3131 15.8679 89.5869 17.6007 91.8406 17.6007C94.0943 17.6007 95.3682 15.8679 95.3682 13.8617C95.3682 11.8554 94.0943 10.1227 91.8406 10.1227C89.5869 10.1227 88.3131 11.8554 88.3131 13.8617ZM83.9036 13.8617C83.7076 9.75789 87.1372 6.20128 91.5466 6.01889C94.1923 5.9277 96.642 7.02204 98.3078 8.93713C100.268 11.5818 100.561 14.956 98.9937 17.8742C96.838 21.522 91.9386 22.7988 88.0191 20.7925C85.3734 19.4246 83.7076 16.7799 83.9036 13.8617ZM78.6123 6.38367V8.38996H78.5143C78.4163 8.20757 78.2203 8.02518 78.0244 7.84279C74.7908 5.28933 69.4015 5.8365 67.3437 9.39311C66.3639 11.3082 66.0699 13.4969 66.4619 15.5944C66.7558 17.5095 67.5397 19.5157 69.3035 20.6101C71.3612 21.7956 73.8109 22.0692 76.0646 21.2485C76.8485 20.9749 77.5344 20.4277 78.1224 19.7893H78.2204V21.2485C78.3183 22.2516 77.9264 23.1635 77.2405 23.8931C75.8687 25.261 73.125 25.1698 71.2632 24.7139C70.2834 24.4403 69.3035 24.0755 68.4216 23.5283L65.9719 26.8113C67.1478 27.6321 68.4216 28.1793 69.7934 28.544C73.321 29.3648 78.1224 29.3648 80.866 26.8113C82.4338 25.3522 83.0217 23.1635 83.0217 20.3365V6.38367H78.6123ZM77.4364 16.6887C76.0646 18.0566 73.8109 18.1478 72.3411 16.8711L72.1451 16.6887C70.8713 15.0472 70.8713 12.8585 72.1451 11.217C73.517 9.84908 75.7707 9.75789 77.2405 11.0346L77.4364 11.217C78.7103 12.7673 78.7103 15.0472 77.4364 16.6887C78.0244 15.9591 76.7505 17.3271 77.4364 16.6887Z" fill="#FFC178" fill-opacity="0.9"/>
<path d="M15.0184 6.38368H20.0158V8.84594H20.1138C20.5057 8.02519 21.1916 7.29563 21.9755 6.74846C23.3474 6.11009 24.9152 5.83651 26.385 6.20129V10.3963C25.4051 10.1227 23.2494 9.75789 21.7796 10.5786C20.7997 11.1258 20.1138 11.7642 20.1138 15.0472V21.2485H15.1164L15.0184 6.38368Z" fill="#FFC178" fill-opacity="0.9"/>
<path d="M55.8792 15.412C54.8994 15.9591 54.2135 17.0535 55.0953 17.9654C55.9772 18.7862 57.545 18.695 58.6229 18.3302C59.8967 18.0566 60.7786 16.9623 60.7786 15.7768V14.8648C60.8766 14.8648 57.1531 14.6824 55.8792 15.412ZM60.8766 19.5157C60.2887 20.2453 59.5048 20.8837 58.6229 21.2485C55.0953 22.6164 50.098 21.2485 50 17.1447C50 12.8585 54.9974 12.0378 58.6229 11.9466H60.8766C60.8766 11.217 60.5826 10.4874 59.8967 10.0315C59.2709 9.58971 58.5198 9.32835 57.7361 9.27973C56.9524 9.2311 56.1705 9.39734 55.4873 9.75789C54.8014 10.1227 54.2135 10.4874 53.7235 11.0346L50.9799 8.48116C51.8618 7.6604 53.0376 7.11323 54.2135 6.65726C56.4672 5.9277 58.8189 5.8365 61.0726 6.38367C63.1303 6.93084 64.6001 8.48116 64.9921 10.3963C65.1881 11.4906 65.286 12.5849 65.286 13.6793V21.2485H60.7786L60.8766 19.5157Z" fill="#FFC178" fill-opacity="0.9"/>
</g>
<defs>
<filter id="filter0_i_344_2" x="0" y="0" width="100" height="33" filterUnits="userSpaceOnUse" color-interpolation-filters="sRGB">
<feFlood flood-opacity="0" result="BackgroundImageFix"/>
<feBlend mode="normal" in="SourceGraphic" in2="BackgroundImageFix" result="shape"/>
<feColorMatrix in="SourceAlpha" type="matrix" values="0 0 0 0 0 0 0 0 0 0 0 0 0 0 0 0 0 0 127 0" result="hardAlpha"/>
<feOffset dy="4"/>
<feGaussianBlur stdDeviation="2"/>
<feComposite in2="hardAlpha" operator="arithmetic" k2="-1" k3="1"/>
<feColorMatrix type="matrix" values="0 0 0 0 0 0 0 0 0 0 0 0 0 0 0 0 0 0 0.25 0"/>
<feBlend mode="normal" in2="shape" result="effect1_innerShadow_344_2"/>
</filter>
<clipPath id="clip0_344_2">
<rect width="100" height="29" fill="white"/>
</clipPath>
</defs>
</svg>
