<svg width="100" height="23" viewBox="0 0 100 23" fill="none" xmlns="http://www.w3.org/2000/svg">
<g opacity="0.9" filter="url(#filter0_i_344_9)">
<path fill-rule="evenodd" clip-rule="evenodd" d="M12.6747 5.84739C12.7711 5.83133 12.8193 5.86346 12.8675 5.92771C13.1888 6.31325 14.2329 7.64659 14.506 8.01607C14.5542 8.06426 14.5382 8.14458 14.49 8.19277C12.4016 9.91164 10.0723 12.3534 8.77108 14.1044C8.73896 14.1365 8.77108 14.1365 8.78715 14.1365C11.0522 13.1084 16.3534 11.4699 18.747 11.004V7.80723L9.39759 0L0.016064 7.80723V11.3092C2.90763 9.47791 9.62249 6.6506 12.6747 5.84739ZM56.1928 1.0763H60.3052V21.6386H56.1928V1.0763ZM53.1245 1.0763H49.012V21.6386H53.1245V1.0763ZM80.4819 8.17671H76.4177L80.5462 21.6225H84.3373L85.3655 18.2169C85.7831 16.8675 86.4578 14.3454 86.4578 14.3454C86.4578 14.3293 86.4739 14.3133 86.49 14.3133C86.506 14.3133 86.506 14.3133 86.5221 14.3454C86.5221 14.3454 87.2128 16.9157 87.5984 18.2329L88.6104 21.6064H92.3373L96.4337 8.16064H92.6586L91.4859 12.2249C91.1325 13.51 90.7791 14.8112 90.4418 16.0964C90.4418 16.1125 90.4257 16.1285 90.4096 16.1285C90.3936 16.1285 90.3775 16.1125 90.3775 16.0964C90.3775 16.0964 89.751 13.6064 89.3333 12.2249L88.1124 8.16064H85.1084L83.8715 12.2249C83.4859 13.5261 82.8112 16.0964 82.8112 16.0964C82.8112 16.1125 82.7952 16.1125 82.7791 16.1125C82.763 16.1125 82.747 16.1125 82.747 16.0964C82.747 16.0964 82.0883 13.5582 81.7028 12.2249L80.4819 8.17671ZM62.3454 14.9558C62.3454 10.8755 65.4779 7.83936 69.2851 7.83936C73.0602 7.83936 76.1928 10.8755 76.1928 14.9558C76.1928 19.0522 73.0763 22.0884 69.2851 22.0884C65.4618 22.0884 62.3454 19.0522 62.3454 14.9558ZM72.241 14.9558C72.241 12.9639 70.8916 11.5984 69.2851 11.5984C67.6466 11.5984 66.2972 12.9639 66.2972 14.9558C66.2972 16.9799 67.6466 18.3293 69.2851 18.3293C70.8916 18.3133 72.241 16.9639 72.241 14.9558ZM25.1888 2.97189V6.93976H32.4659C32.498 6.93976 32.5141 6.97189 32.498 7.00401L25.1888 20.1125L25.1727 20.1285C25.012 20.4498 24.9639 20.5301 24.9639 20.8514V21.6225H39.1486V17.6546H31.2771C31.261 17.6546 31.261 17.6546 31.245 17.6386C31.245 17.6225 31.245 17.6064 31.245 17.6064L38.6345 4.32129L38.6667 4.28916C38.7149 4.17671 38.763 4.08032 38.763 3.79116V2.97189H25.1888ZM43.8233 1.44578C45.1084 1.44578 46.1687 2.53815 46.1687 3.88755C46.1687 5.23695 45.1084 6.32932 43.8233 6.32932C42.5381 6.32932 41.4779 5.23695 41.4779 3.88755C41.4779 2.53815 42.5542 1.44578 43.8233 1.44578ZM41.7671 8.17671H45.8795V21.6386H41.7671V8.17671ZM4.8514 19.245C4.8996 19.3092 4.99598 19.3253 5.06024 19.2771C8.54618 17.3815 16.1928 14.988 18.747 14.5221V21.7028H0V14.249C1.92771 13.0924 7.13253 10.747 8.96386 10.1044C8.99598 10.0884 9.01205 10.1205 8.97992 10.1365C7.22891 11.5181 4.46586 14.7631 3.11647 16.8514C3.05221 16.9478 3.05221 16.9799 3.1004 17.0442L4.8514 19.245ZM98.5542 5.60643C98.9076 5.60643 99.1647 5.87952 99.1647 6.26506C99.1647 6.55421 99.0201 6.79518 98.7791 6.8755L99.1325 7.48594H98.7952L98.4739 6.92369H98.1847V7.48594H97.8956V5.60643H98.5542ZM98.1847 6.6506H98.5221C98.7149 6.6506 98.8594 6.48996 98.8594 6.26506C98.8594 6.04016 98.7149 5.87952 98.5221 5.87952H98.1847V6.6506ZM98.4578 4.96386C97.8313 4.96386 97.2691 5.36546 97.0442 5.95984C96.8032 6.57028 96.9317 7.24498 97.3815 7.72691C97.8153 8.19277 98.49 8.32129 99.0522 8.08032C99.6305 7.82329 100 7.22891 100 6.58634C100 5.68674 99.3092 4.96386 98.4578 4.96386ZM98.4578 7.88755C97.9598 7.88755 97.51 7.56626 97.3173 7.08434C97.1245 6.60241 97.2209 6.04016 97.5904 5.65462C97.9438 5.28514 98.4739 5.17269 98.9398 5.36546C99.4056 5.5743 99.7108 6.04016 99.7108 6.57028C99.7108 7.30924 99.1486 7.88755 98.4578 7.88755Z" fill="#FFC178" fill-opacity="0.9"/>
</g>
<defs>
<filter id="filter0_i_344_9" x="0" y="0" width="100" height="26.0884" filterUnits="userSpaceOnUse" color-interpolation-filters="sRGB">
<feFlood flood-opacity="0" result="BackgroundImageFix"/>
<feBlend mode="normal" in="SourceGraphic" in2="BackgroundImageFix" result="shape"/>
<feColorMatrix in="SourceAlpha" type="matrix" values="0 0 0 0 0 0 0 0 0 0 0 0 0 0 0 0 0 0 127 0" result="hardAlpha"/>
<feOffset dy="4"/>
<feGaussianBlur stdDeviation="2"/>
<feComposite in2="hardAlpha" operator="arithmetic" k2="-1" k3="1"/>
<feColorMatrix type="matrix" values="0 0 0 0 0 0 0 0 0 0 0 0 0 0 0 0 0 0 0.25 0"/>
<feBlend mode="normal" in2="shape" result="effect1_innerShadow_344_9"/>
</filter>
</defs>
</svg>
